<?xml version="1.0" encoding="utf-8"?>
<!-- Generator: Adobe Illustrator 22.0.1, SVG Export Plug-In . SVG Version: 6.00 Build 0)  -->
<svg version="1.1" id="레이어_1" xmlns="http://www.w3.org/2000/svg" xmlns:xlink="http://www.w3.org/1999/xlink" x="0px"
	 y="0px" viewBox="0 0 612 792" style="enable-background:new 0 0 612 792;" xml:space="preserve">
<style type="text/css">
	.st0{fill:#CD131C;}
	.st1{fill:#C77E82;}
	.st2{fill:#F4ABAC;}
	.st3{fill:#040000;}
	.st4{fill:#FDFDFE;}
	.st5{fill:#433133;}
	.st6{fill:#FFFFFF;}
	.st7{fill:none;stroke:#CD131C;stroke-miterlimit:10;}
</style>
<g>
	<g>
		<g>
			<path class="st0" d="M129.4,130.9c0,0,34.4,23.8,30.5,65.8c0,0-29.1,55.8,20.7,93.5l62.1-27.5c0,0-45.8-18.4-50.5-63.6
				C192.3,199,170,130.9,129.4,130.9z"/>
			<path class="st0" d="M486.1,130.9c0,0-34.4,23.8-30.5,65.8c0,0,29.1,55.8-20.7,93.5l-62.1-27.5c0,0,45.8-18.4,50.5-63.6
				C423.3,199,445.5,130.9,486.1,130.9z"/>
		</g>
		<g>
			<path class="st1" d="M166.8,417.6c0,0-14.1-15.5-28.6,7.6c0,0-8.5,34.9,18.5,74.6c0,0,14.5,27.3,27.7,11.6
				C184.4,511.5,233,455.5,166.8,417.6z"/>
			<path class="st1" d="M444.6,419c0,0,14.1-15.5,28.6,7.6c0,0,8.5,34.9-18.5,74.6c0,0-14.5,27.3-27.7,11.6
				C427,512.7,378.5,456.8,444.6,419z"/>
			<path class="st2" d="M448.7,394.1c-2.1,65.5-11,115.8-11,115.8c-14.3,36.8-58.2,60.2-58.2,60.2c-66.4,65.5-140.4,0-140.4,0
				c-41.8-20-50.7-56.9-50.7-56.9c-26-42.1-21.2-119.1-21.2-119.1s-4.3-41.1,23.8-66.7c0,0,56.2-38.7,110.3-25.7
				c0,0,48.6-21.8,121.9,16.3C423.1,318.2,450.2,347.5,448.7,394.1z"/>
			<path class="st3" d="M224.8,242.3c0,0,65.3-33.6,128.6-7.9c0,0,54.7,18.5,94.9,69.2c0,0,20.4,27.7,19.8,60.6
				c0,0-3.9,22.5-20.4,40.8c0,0,7.9-23-15.9-21.7c0,0,5.3,10.6-3.2,21.7c0,0,7.6,0.6-18.5-77.8c0,0,9.8,50.8-28.3,64.6
				c0,0,21.7-21.1,1.3-55.3c0,0,6.6,45.5-36.6,56.7c0,0,34.5-23.8,4.9-48.7c0,0-49.4,6.6-35.7,48.1c0,0-35.7-17.8-40.2-38.3
				c0,0-5.9,42.3-42.3,33c0,0,30.4-13.2,11.2-38.9c0,0-33.6,27-10.6,56.7c0,0-33.6-18.5-37.6-51.4c0,0-25.1,30.4-3.2,51.4
				c0,0-32.6-15.5-43.7-50.5C149.5,354.6,128,281,224.8,242.3z"/>
			<path class="st4" d="M209.8,429.1c0,0,49.4-31,70.5,9.3C280.3,438.3,266.5,421.7,209.8,429.1z"/>
			<path class="st4" d="M400.9,429.1c0,0-49.4-31-70.5,9.3C330.4,438.3,344.3,421.7,400.9,429.1z"/>
			<path class="st1" d="M294.5,438.3v54.8c0,0-1.9-13.8-21.1-13.8L294.5,438.3z"/>
			<path class="st1" d="M338.6,438.3c0,0,1-0.4,3-1c8.9-2.7,36.3-9.8,59.3-2.2l-25.3,19.8c0,0-11.6-11.6-35.8-16.9"/>
			<path class="st1" d="M272.1,438.3c0,0-1-0.4-3-1c-8.9-2.7-36.3-9.8-59.3-2.2l25.3,19.8c0,0,11.6-11.6,35.8-16.9"/>
			<path class="st5" d="M318.9,406.1l19.6,5.9c0,0,43.6-15.6,71.2-6.9C409.8,405.2,350.7,386.3,318.9,406.1z"/>
			<path class="st5" d="M290.5,406.7l-19.6,5.9c0,0-43.6-15.6-71.2-6.9C199.6,405.8,258.7,387,290.5,406.7z"/>
			<path class="st6" d="M225.4,481.3c0,0,78,72.3,164.8,0C390.2,481.3,316.5,616.3,225.4,481.3z"/>
		</g>
		<polyline class="st7" points="225.4,481.3 245,504.1 252.4,504.1 256.6,511.5 263.7,509.4 273.3,521.5 280.3,517.5 294.5,528.4 
			302.8,520.4 313.8,528.4 324.5,517.5 334.3,524.5 344.5,513.9 351.4,516.2 357.5,504.9 365.7,506.7 372.6,498 376.7,495.7 
			390.2,481.3 		"/>
	</g>
	<path d="M148,347.2c0,0-0.5,28,21.1,100.2c0,0-4.4-46.4,7.2-53.5C187.9,386.8,148,347.2,148,347.2z"/>
	<path d="M468.1,364.2c0,0-14.4,59.2-21.9,74.2c0,0,2.5-32.7-13-44.5c-15.5-11.9,8.9-23.7,8.9-23.7L468.1,364.2z"/>
</g>
</svg>
